<svg viewBox="-50 -50 100 100" fill="transparent" xmlns="http://www.w3.org/2000/svg">
    <ellipse cx="0" cy="5" rx="30" ry="40"
             fill="yellow"
             stroke="goldenrod"
             stroke-width="3"/>
    <ellipse cx="-10" cy="15" rx="10" ry="10"
             fill="grey"
             stroke="black"
             stroke-width="3"/>
    <line x1="-30" x2="-20" y1="5" y2="10"
          fill="grey"
          stroke="black"
          stroke-width="3"/>
    <line x1="30" x2="10" y1="5" y2="15"
          fill="grey"
          stroke="black"
          stroke-width="3"/>
    <polygon
            fill="grey"
            stroke="black"
            stroke-width="3"
            points="-40,-40 -40,-20 10,30 40,-20 40,-40"
    />
    <polygon
            fill="grey"
            stroke="black"
            stroke-width="3"
            points="-40,-40 40,-40 10,10"
    />
    <line x1="10" x2="10" y1="10" y2="30"
          fill="grey"
          stroke="black"
          stroke-width="3"/>
    <line x1="5" x2="10" y1="-10" y2="10"
          fill="grey"
          stroke="black"
          stroke-width="3"/>
    <line x1="-10" x2="5" y1="-25" y2="-10"
          fill="grey"
          stroke="black"
          stroke-width="3"/>
    <line x1="-40" x2="-10" y1="-40" y2="-25"
          fill="grey"
          stroke="black"
          stroke-width="3"/>
    <line x1="20" x2="5" y1="-25" y2="-10"
          fill="grey"
          stroke="black"
          stroke-width="3"/>
    <line x1="20" x2="-10" y1="-25" y2="-25"
          fill="grey"
          stroke="black"
          stroke-width="3"/>
    <line x1="20" x2="40" y1="-25" y2="-40"
          fill="grey"
          stroke="black"
          stroke-width="3"/>
</svg>