<svg viewBox="0 0 1000 1000" fill="transparent" xmlns="http://www.w3.org/2000/svg">
    <rect x="1" y="958" width="998" height="40" stroke="black" fill="tan"/>
    <rect x="6" y="4" width="988" height="950" stroke="black" fill="lightgrey"/>
    <g transform="translate(0,0)">
        <line x1="60" x2="40" y1="6" y2="954" stroke="black"/>
        <line x1="110" x2="90" y1="6" y2="954" stroke="black"/>
        <line x1="160" x2="140" y1="6" y2="954" stroke="black"/>
        <line x1="210" x2="190" y1="6" y2="954" stroke="black"/>
    </g>
    <g transform="translate(200,0)">
        <line x1="60" x2="40" y1="6" y2="954" stroke="black"/>
        <line x1="110" x2="90" y1="6" y2="954" stroke="black"/>
        <line x1="160" x2="140" y1="6" y2="954" stroke="black"/>
        <line x1="210" x2="190" y1="6" y2="954" stroke="black"/>
    </g>
    <g transform="translate(400,0)">
        <line x1="60" x2="40" y1="6" y2="954" stroke="black"/>
        <line x1="110" x2="90" y1="6" y2="954" stroke="black"/>
        <line x1="160" x2="140" y1="6" y2="954" stroke="black"/>
        <line x1="210" x2="190" y1="6" y2="954" stroke="black"/>
    </g>
    <g transform="translate(600,0)">
        <line x1="60" x2="40" y1="6" y2="954" stroke="black"/>
        <line x1="110" x2="90" y1="6" y2="954" stroke="black"/>
        <line x1="160" x2="140" y1="6" y2="954" stroke="black"/>
        <line x1="210" x2="190" y1="6" y2="954" stroke="black"/>
    </g>
    <g transform="translate(800,0)">
        <line x1="60" x2="40" y1="6" y2="954" stroke="black"/>
        <line x1="110" x2="90" y1="6" y2="954" stroke="black"/>
        <line x1="160" x2="140" y1="6" y2="954" stroke="black"/>
        <line x1="210" x2="190" y1="6" y2="954" stroke="black"/>
    </g>
</svg>