<svg viewBox="0 0 1000 1000" fill="transparent" xmlns="http://www.w3.org/2000/svg">
    <g transform="translate(0,0)">
        <rect x="-599" y="1" width="598" height="48" stroke="black" fill="tan"/>
        <rect x="1" y="1" width="598" height="48" stroke="black" fill="tan"/>
        <rect x="601" y="1" width="598" height="48" stroke="black" fill="tan"/>
        <rect x="1201" y="1" width="598" height="48" stroke="black" fill="tan"/>
        <g transform="translate(-200,50)">
            <rect x="-599" y="1" width="598" height="48" stroke="black" fill="tan"/>
            <rect x="1" y="1" width="598" height="48" stroke="black" fill="tan"/>
            <rect x="601" y="1" width="598" height="48" stroke="black" fill="tan"/>
            <rect x="1201" y="1" width="598" height="48" stroke="black" fill="tan"/>
        </g>
        <g transform="translate(-400,100)">
            <rect x="-599" y="1" width="598" height="48" stroke="black" fill="tan"/>
            <rect x="1" y="1" width="598" height="48" stroke="black" fill="tan"/>
            <rect x="601" y="1" width="598" height="48" stroke="black" fill="tan"/>
            <rect x="1201" y="1" width="598" height="48" stroke="black" fill="tan"/>
        </g>
    </g>
    <g transform="translate(0,150)">
        <rect x="-599" y="1" width="598" height="48" stroke="black" fill="tan"/>
        <rect x="1" y="1" width="598" height="48" stroke="black" fill="tan"/>
        <rect x="601" y="1" width="598" height="48" stroke="black" fill="tan"/>
        <rect x="1201" y="1" width="598" height="48" stroke="black" fill="tan"/>
        <g transform="translate(-200,50)">
            <rect x="-599" y="1" width="598" height="48" stroke="black" fill="tan"/>
            <rect x="1" y="1" width="598" height="48" stroke="black" fill="tan"/>
            <rect x="601" y="1" width="598" height="48" stroke="black" fill="tan"/>
            <rect x="1201" y="1" width="598" height="48" stroke="black" fill="tan"/>
        </g>
        <g transform="translate(-400,100)">
            <rect x="-599" y="1" width="598" height="48" stroke="black" fill="tan"/>
            <rect x="1" y="1" width="598" height="48" stroke="black" fill="tan"/>
            <rect x="601" y="1" width="598" height="48" stroke="black" fill="tan"/>
            <rect x="1201" y="1" width="598" height="48" stroke="black" fill="tan"/>
        </g>
    </g>
    <g transform="translate(0,300)">
        <rect x="-599" y="1" width="598" height="48" stroke="black" fill="tan"/>
        <rect x="1" y="1" width="598" height="48" stroke="black" fill="tan"/>
        <rect x="601" y="1" width="598" height="48" stroke="black" fill="tan"/>
        <rect x="1201" y="1" width="598" height="48" stroke="black" fill="tan"/>
        <g transform="translate(-200,50)">
            <rect x="-599" y="1" width="598" height="48" stroke="black" fill="tan"/>
            <rect x="1" y="1" width="598" height="48" stroke="black" fill="tan"/>
            <rect x="601" y="1" width="598" height="48" stroke="black" fill="tan"/>
            <rect x="1201" y="1" width="598" height="48" stroke="black" fill="tan"/>
        </g>
        <g transform="translate(-400,100)">
            <rect x="-599" y="1" width="598" height="48" stroke="black" fill="tan"/>
            <rect x="1" y="1" width="598" height="48" stroke="black" fill="tan"/>
            <rect x="601" y="1" width="598" height="48" stroke="black" fill="tan"/>
            <rect x="1201" y="1" width="598" height="48" stroke="black" fill="tan"/>
        </g>
    </g>
    <g transform="translate(0,450)">
        <rect x="-599" y="1" width="598" height="48" stroke="black" fill="tan"/>
        <rect x="1" y="1" width="598" height="48" stroke="black" fill="tan"/>
        <rect x="601" y="1" width="598" height="48" stroke="black" fill="tan"/>
        <rect x="1201" y="1" width="598" height="48" stroke="black" fill="tan"/>
        <g transform="translate(-200,50)">
            <rect x="-599" y="1" width="598" height="48" stroke="black" fill="tan"/>
            <rect x="1" y="1" width="598" height="48" stroke="black" fill="tan"/>
            <rect x="601" y="1" width="598" height="48" stroke="black" fill="tan"/>
            <rect x="1201" y="1" width="598" height="48" stroke="black" fill="tan"/>
        </g>
        <g transform="translate(-400,100)">
            <rect x="-599" y="1" width="598" height="48" stroke="black" fill="tan"/>
            <rect x="1" y="1" width="598" height="48" stroke="black" fill="tan"/>
            <rect x="601" y="1" width="598" height="48" stroke="black" fill="tan"/>
            <rect x="1201" y="1" width="598" height="48" stroke="black" fill="tan"/>
        </g>
    </g>
    <g transform="translate(0,600)">
        <rect x="-599" y="1" width="598" height="48" stroke="black" fill="tan"/>
        <rect x="1" y="1" width="598" height="48" stroke="black" fill="tan"/>
        <rect x="601" y="1" width="598" height="48" stroke="black" fill="tan"/>
        <rect x="1201" y="1" width="598" height="48" stroke="black" fill="tan"/>
        <g transform="translate(-200,50)">
            <rect x="-599" y="1" width="598" height="48" stroke="black" fill="tan"/>
            <rect x="1" y="1" width="598" height="48" stroke="black" fill="tan"/>
            <rect x="601" y="1" width="598" height="48" stroke="black" fill="tan"/>
            <rect x="1201" y="1" width="598" height="48" stroke="black" fill="tan"/>
        </g>
        <g transform="translate(-400,100)">
            <rect x="-599" y="1" width="598" height="48" stroke="black" fill="tan"/>
            <rect x="1" y="1" width="598" height="48" stroke="black" fill="tan"/>
            <rect x="601" y="1" width="598" height="48" stroke="black" fill="tan"/>
            <rect x="1201" y="1" width="598" height="48" stroke="black" fill="tan"/>
        </g>
    </g>
    <g transform="translate(0,750)">
        <rect x="-599" y="1" width="598" height="48" stroke="black" fill="tan"/>
        <rect x="1" y="1" width="598" height="48" stroke="black" fill="tan"/>
        <rect x="601" y="1" width="598" height="48" stroke="black" fill="tan"/>
        <rect x="1201" y="1" width="598" height="48" stroke="black" fill="tan"/>
        <g transform="translate(-200,50)">
            <rect x="-599" y="1" width="598" height="48" stroke="black" fill="tan"/>
            <rect x="1" y="1" width="598" height="48" stroke="black" fill="tan"/>
            <rect x="601" y="1" width="598" height="48" stroke="black" fill="tan"/>
            <rect x="1201" y="1" width="598" height="48" stroke="black" fill="tan"/>
        </g>
        <g transform="translate(-400,100)">
            <rect x="-599" y="1" width="598" height="48" stroke="black" fill="tan"/>
            <rect x="1" y="1" width="598" height="48" stroke="black" fill="tan"/>
            <rect x="601" y="1" width="598" height="48" stroke="black" fill="tan"/>
            <rect x="1201" y="1" width="598" height="48" stroke="black" fill="tan"/>
        </g>
    </g>
    <g transform="translate(0,900)">
        <rect x="-599" y="1" width="598" height="48" stroke="black" fill="tan"/>
        <rect x="1" y="1" width="598" height="48" stroke="black" fill="tan"/>
        <rect x="601" y="1" width="598" height="48" stroke="black" fill="tan"/>
        <rect x="1201" y="1" width="598" height="48" stroke="black" fill="tan"/>
        <g transform="translate(-200,50)">
            <rect x="-599" y="1" width="598" height="48" stroke="black" fill="tan"/>
            <rect x="1" y="1" width="598" height="48" stroke="black" fill="tan"/>
            <rect x="601" y="1" width="598" height="48" stroke="black" fill="tan"/>
            <rect x="1201" y="1" width="598" height="48" stroke="black" fill="tan"/>
        </g>
        <g transform="translate(-400,100)">
            <rect x="-599" y="1" width="598" height="48" stroke="black" fill="tan"/>
            <rect x="1" y="1" width="598" height="48" stroke="black" fill="tan"/>
            <rect x="601" y="1" width="598" height="48" stroke="black" fill="tan"/>
            <rect x="1201" y="1" width="598" height="48" stroke="black" fill="tan"/>
        </g>
    </g>
</svg>